<svg viewBox="575 395.959 380 75.0819" width="5000" height="987.9197368421053" xmlns="http://www.w3.org/2000/svg" xmlns:xlink="http://www.w3.org/1999/xlink" preserveAspectRatio="none"><defs></defs><style>.companyName {fill:#FFFFFF;fill-opacity:1;}.icon1 {fill:#FFFFFF;fill-opacity:1;}.icon2 {fill:#D9D9D9;fill-opacity:1;}.icon3 {fill:#B4B4B4;fill-opacity:1;}.shapeStroke-str {stroke:#D9D9D9;stroke-opacity:1;}</style><g opacity="1" transform="rotate(0 575 404.6223)">
<svg width="78.4033" height="57.7553" x="575" y="404.6223" version="1.1" preserveAspectRatio="none" viewBox="5 16.851001739501953 90.00000762939453 66.29800415039062">
  <g transform="matrix(1 0 0 1 0 0)" class="icon1"><g><path d="M64.519,37.213c-0.843,0.713-0.949,1.976-0.236,2.818c2.846,3.365,4.413,7.649,4.413,12.064   c0,10.308-8.387,18.694-18.695,18.694s-18.695-8.387-18.695-18.694C31.305,41.787,39.691,33.4,50,33.4   c3.329,0,6.596,0.885,9.447,2.559c0.954,0.558,2.179,0.239,2.737-0.712c0.56-0.953,0.24-2.179-0.712-2.737   C58.007,30.476,54.04,29.4,50,29.4c-12.514,0-22.695,10.181-22.695,22.695C27.305,64.609,37.486,74.79,50,74.79   s22.695-10.181,22.695-22.694c0-5.359-1.903-10.561-5.358-14.646C66.625,36.606,65.363,36.5,64.519,37.213z"></path><path d="M59.306,60.791c0.344,0.232,0.734,0.344,1.12,0.344c0.641,0,1.271-0.308,1.658-0.879c1.637-2.416,2.502-5.238,2.502-8.161   c0-8.042-6.543-14.585-14.585-14.585c-2.31,0-4.612,0.557-6.657,1.609c-0.982,0.506-1.368,1.712-0.863,2.694   c0.506,0.981,1.713,1.366,2.694,0.862C46.677,41.902,48.3,41.51,50,41.51c5.837,0,10.585,4.748,10.585,10.585   c0,2.12-0.627,4.167-1.813,5.919C58.152,58.928,58.392,60.171,59.306,60.791z"></path><path d="M39.597,44.742c-0.99-0.487-2.19-0.083-2.68,0.906c-0.997,2.018-1.503,4.187-1.503,6.446   c0,8.043,6.543,14.586,14.585,14.586c1.689,0,3.346-0.288,4.924-0.855c1.04-0.374,1.579-1.52,1.205-2.559   c-0.374-1.04-1.519-1.578-2.559-1.205c-1.143,0.411-2.344,0.619-3.57,0.619c-5.837,0-10.585-4.749-10.585-10.586   c0-1.64,0.366-3.212,1.089-4.673C40.993,46.432,40.587,45.232,39.597,44.742z"></path><path d="M83.574,25.099H71.192c-0.782,0-1.506-0.354-1.989-0.969l-3.331-4.253c-1.506-1.923-3.771-3.026-6.215-3.026H40.343   c-2.443,0-4.708,1.104-6.214,3.026l-3.332,4.253c-0.482,0.615-1.207,0.969-1.988,0.969H16.426C10.126,25.099,5,30.225,5,36.524   v35.213c0,6.293,5.12,11.412,11.413,11.412h67.161c6.3,0,11.426-5.119,11.426-11.412V36.524C95,30.225,89.874,25.099,83.574,25.099   z M91,71.737c0,4.087-3.332,7.412-7.426,7.412H16.413C12.325,79.149,9,75.824,9,71.737V36.524c0-4.095,3.332-7.426,7.426-7.426   h12.382c2.02,0,3.892-0.912,5.137-2.502l3.332-4.253c0.743-0.949,1.86-1.493,3.065-1.493h19.314c1.205,0,2.323,0.544,3.066,1.493   l3.331,4.253c1.246,1.59,3.118,2.502,5.138,2.502h12.382c4.095,0,7.426,3.331,7.426,7.426V71.737z"></path></g></g>
</svg>
</g><g opacity="1" transform="rotate(0 680.8371 415.4514)">
<svg width="274.1629" height="36.0971" x="680.8371" y="415.4514" version="1.1" preserveAspectRatio="none" viewBox="-0.36 -31.48 288 37.92">
  <g transform="matrix(1 0 0 1 0 0)" class="companyName"><path d="M24.24 0L21.76-6L8.76-6L6.28 0L-0.36 0L12.12-28L18.52-28L31.04 0L24.24 0ZM10.84-10.92L19.72-10.92L15.28-21.64L10.84-10.92Z M48.56-21.52L54.80-21.52L54.80 0L48.88 0L48.88-2.56Q47.64-1.16 45.92-0.42Q44.20 0.32 42.20 0.32L42.20 0.32Q37.96 0.32 35.48-2.12Q33-4.56 33-9.36L33-9.36L33-21.52L39.24-21.52L39.24-10.28Q39.24-5.08 43.60-5.08L43.60-5.08Q45.84-5.08 47.20-6.54Q48.56-8 48.56-10.88L48.56-10.88L48.56-21.52Z M72.80-5.44L74.48-1.04Q73.56-0.36 72.22-0.02Q70.88 0.32 69.40 0.32L69.40 0.32Q65.56 0.32 63.46-1.64Q61.36-3.60 61.36-7.40L61.36-7.40L61.36-16.24L58.04-16.24L58.04-21.04L61.36-21.04L61.36-26.28L67.60-26.28L67.60-21.04L72.96-21.04L72.96-16.24L67.60-16.24L67.60-7.48Q67.60-6.12 68.30-5.38Q69-4.64 70.28-4.64L70.28-4.64Q71.76-4.64 72.80-5.44L72.80-5.44Z M87.56 0.32Q84.16 0.32 81.46-1.10Q78.76-2.52 77.24-5.04Q75.72-7.56 75.72-10.76L75.72-10.76Q75.72-13.96 77.24-16.48Q78.76-19 81.46-20.42Q84.16-21.84 87.56-21.84L87.56-21.84Q90.96-21.84 93.64-20.42Q96.32-19 97.84-16.48Q99.36-13.96 99.36-10.76L99.36-10.76Q99.36-7.56 97.84-5.04Q96.32-2.52 93.64-1.10Q90.96 0.32 87.56 0.32L87.56 0.32ZM87.56-4.80Q89.96-4.80 91.50-6.42Q93.04-8.04 93.04-10.76L93.04-10.76Q93.04-13.48 91.50-15.10Q89.96-16.72 87.56-16.72L87.56-16.72Q85.16-16.72 83.60-15.10Q82.04-13.48 82.04-10.76L82.04-10.76Q82.04-8.04 83.60-6.42Q85.16-4.80 87.56-4.80L87.56-4.80Z M131.36-0.44L134.24 3Q132.88 4.68 130.94 5.56Q129 6.44 126.68 6.44L126.68 6.44Q123.56 6.44 121.04 5.10Q118.52 3.76 115.28 0.36L115.28 0.36Q111.48-0.12 108.50-2.08Q105.52-4.04 103.86-7.14Q102.20-10.24 102.20-14L102.20-14Q102.20-18.12 104.18-21.42Q106.16-24.72 109.66-26.60Q113.16-28.48 117.52-28.48L117.52-28.48Q121.88-28.48 125.36-26.60Q128.84-24.72 130.84-21.42Q132.84-18.12 132.84-14L132.84-14Q132.84-9.12 130.10-5.44Q127.36-1.76 122.84-0.32L122.84-0.32Q123.84 0.72 124.78 1.18Q125.72 1.64 126.80 1.64L126.80 1.64Q129.40 1.64 131.36-0.44L131.36-0.44ZM108.76-14Q108.76-11.40 109.90-9.36Q111.04-7.32 113.04-6.18Q115.04-5.04 117.52-5.04L117.52-5.04Q120-5.04 122-6.18Q124-7.32 125.14-9.36Q126.28-11.40 126.28-14L126.28-14Q126.28-16.60 125.14-18.64Q124-20.68 122-21.82Q120-22.96 117.52-22.96L117.52-22.96Q115.04-22.96 113.04-21.82Q111.04-20.68 109.90-18.64Q108.76-16.60 108.76-14L108.76-14Z M152.72-21.52L158.96-21.52L158.96 0L153.04 0L153.04-2.56Q151.80-1.16 150.08-0.42Q148.36 0.32 146.36 0.32L146.36 0.32Q142.12 0.32 139.64-2.12Q137.16-4.56 137.16-9.36L137.16-9.36L137.16-21.52L143.40-21.52L143.40-10.28Q143.40-5.08 147.76-5.08L147.76-5.08Q150-5.08 151.36-6.54Q152.72-8 152.72-10.88L152.72-10.88L152.72-21.52Z M164.76 0L164.76-21.52L171-21.52L171 0L164.76 0ZM167.88-24.52Q166.16-24.52 165.08-25.52Q164-26.52 164-28L164-28Q164-29.48 165.08-30.48Q166.16-31.48 167.88-31.48L167.88-31.48Q169.60-31.48 170.68-30.52Q171.76-29.56 171.76-28.12L171.76-28.12Q171.76-26.56 170.68-25.54Q169.60-24.52 167.88-24.52L167.88-24.52Z M187.20 0.32Q183.76 0.32 181.02-1.10Q178.28-2.52 176.74-5.04Q175.20-7.56 175.20-10.76L175.20-10.76Q175.20-13.96 176.74-16.48Q178.28-19 181.02-20.42Q183.76-21.84 187.20-21.84L187.20-21.84Q190.60-21.84 193.14-20.42Q195.68-19 196.84-16.36L196.84-16.36L192-13.76Q190.32-16.72 187.16-16.72L187.16-16.72Q184.72-16.72 183.12-15.12Q181.52-13.52 181.52-10.76L181.52-10.76Q181.52-8 183.12-6.40Q184.72-4.80 187.16-4.80L187.16-4.80Q190.36-4.80 192-7.76L192-7.76L196.84-5.12Q195.68-2.56 193.14-1.12Q190.60 0.32 187.20 0.32L187.20 0.32Z M216.32 0L209.52-8.44L206.52-5.48L206.52 0L200.28 0L200.28-29.68L206.52-29.68L206.52-12.88L215.64-21.52L223.08-21.52L214.12-12.40L223.88 0L216.32 0Z M239.24-28Q242.96-28 245.70-26.76Q248.44-25.52 249.92-23.24Q251.40-20.96 251.40-17.84L251.40-17.84Q251.40-14.76 249.92-12.46Q248.44-10.16 245.70-8.94Q242.96-7.72 239.24-7.72L239.24-7.72L233.60-7.72L233.60 0L227.12 0L227.12-28L239.24-28ZM238.88-13Q241.80-13 243.32-14.26Q244.84-15.52 244.84-17.84L244.84-17.84Q244.84-20.20 243.32-21.46Q241.80-22.72 238.88-22.72L238.88-22.72L233.60-22.72L233.60-13L238.88-13Z M255.56 0L255.56-21.52L261.80-21.52L261.80 0L255.56 0ZM258.68-24.52Q256.96-24.52 255.88-25.52Q254.80-26.52 254.80-28L254.80-28Q254.80-29.48 255.88-30.48Q256.96-31.48 258.68-31.48L258.68-31.48Q260.40-31.48 261.48-30.52Q262.56-29.56 262.56-28.12L262.56-28.12Q262.56-26.56 261.48-25.54Q260.40-24.52 258.68-24.52L258.68-24.52Z M278 0.32Q274.56 0.32 271.82-1.10Q269.08-2.52 267.54-5.04Q266-7.56 266-10.76L266-10.76Q266-13.96 267.54-16.48Q269.08-19 271.82-20.42Q274.56-21.84 278-21.84L278-21.84Q281.40-21.84 283.94-20.42Q286.48-19 287.64-16.36L287.64-16.36L282.80-13.76Q281.12-16.72 277.96-16.72L277.96-16.72Q275.52-16.72 273.92-15.12Q272.32-13.52 272.32-10.76L272.32-10.76Q272.32-8 273.92-6.40Q275.52-4.80 277.96-4.80L277.96-4.80Q281.16-4.80 282.80-7.76L282.80-7.76L287.64-5.12Q286.48-2.56 283.94-1.12Q281.40 0.32 278 0.32L278 0.32Z"/></g>
</svg>
</g><g opacity="1" transform="rotate(0 666.3983 395.959)">
<svg width="2.8877" height="75.0819" x="666.3983" y="395.959" version="1.1" preserveAspectRatio="none" viewBox="0 0 2.8877 75.0819">
  <rect x="0" y="0" width="2.8877" height="75.0819" class="companyName shapeStroke-str" style="stroke-width:0;" rx="0px" ry="0px" />
</svg>
</g></svg>