<svg id="Layer_1" data-name="Layer 1" xmlns="http://www.w3.org/2000/svg" viewBox="0 0 1031.62 987.92"><defs><style>.cls-1{fill:#fff;}</style></defs><title>logo-svg</title><path class="cls-1" d="M682.24,347.39a22.92,22.92,0,0,0-2.71,32.3A214.37,214.37,0,0,1,730.11,518c0,118.16-96.13,214.28-214.29,214.28S301.53,636.12,301.53,518s96.12-214.29,214.28-214.29A214,214,0,0,1,624.1,333a22.92,22.92,0,0,0,23.21-39.54,260,260,0,0,0-131.5-35.65c-143.44,0-260.14,116.7-260.14,260.14s116.7,260.14,260.14,260.14S776,661.41,776,518a260.27,260.27,0,0,0-61.41-167.88A22.91,22.91,0,0,0,682.24,347.39Z"/><path class="cls-1" d="M622.48,617.65a22.93,22.93,0,0,0,31.84-6.13A166.08,166.08,0,0,0,683,518c0-92.18-75-167.18-167.18-167.18a167.49,167.49,0,0,0-76.3,18.45,22.92,22.92,0,1,0,21,40.76,119.68,119.68,0,0,1,55.3-13.36A121.29,121.29,0,0,1,616.36,585.82,22.91,22.91,0,0,0,622.48,617.65Z"/><path class="cls-1" d="M396.57,433.69a23,23,0,0,0-30.72,10.39A165.36,165.36,0,0,0,348.62,518c0,92.19,75,167.19,167.18,167.19a166.44,166.44,0,0,0,56.44-9.8,22.92,22.92,0,0,0-15.52-43.14A121.32,121.32,0,0,1,407,464.4,22.92,22.92,0,0,0,396.57,433.69Z"/><path class="cls-1" d="M900.65,208.53H758.72a28.79,28.79,0,0,1-22.79-11.1l-38.19-48.75A89.9,89.9,0,0,0,626.5,114H405.12a90,90,0,0,0-71.23,34.69L295.7,197.43a28.81,28.81,0,0,1-22.79,11.1H131c-72.21,0-131,58.76-131,131V743.12c0,72.13,58.69,130.81,130.82,130.81H900.65c72.22,0,131-58.68,131-130.81V339.49C1031.62,267.29,972.87,208.53,900.65,208.53Zm85.12,534.59a85.14,85.14,0,0,1-85.12,85H130.82a85.05,85.05,0,0,1-85-85V339.49A85.22,85.22,0,0,1,131,254.37H272.9a74.31,74.31,0,0,0,58.88-28.68L370,176.94a44.34,44.34,0,0,1,35.14-17.11H626.49a44.36,44.36,0,0,1,35.15,17.11l38.18,48.75a74.35,74.35,0,0,0,58.89,28.68H900.64a85.21,85.21,0,0,1,85.12,85.12V743.12Z"/></svg>